<svg xmlns="http://www.w3.org/2000/svg" width="234" height="52" viewBox="0 0 234 52" fill="none"><path d="M72.0182 25.8226V41.6358H69.128V25.8226H63.8885L64.349 23.1582H76.7718L77.2324 25.8226H72.0224H72.0182Z" fill="#383B46"/><path d="M79.9831 23.3686L82.8733 22.9473V41.6355H79.9831V23.3686Z" fill="#383B46"/><path d="M104.533 41.6357L103.481 30.7342L97.0539 41.9786L90.627 30.7838L89.5749 41.6357H86.6593L88.6579 22.1543L97.0539 36.7777L105.424 22.1543L107.423 41.6357H104.533Z" fill="#383B46"/><path d="M122.952 36.5669C122.952 39.5783 120.492 41.6355 116.901 41.6355H111.04V23.1538H116.685C120.116 23.1538 122.466 25.1325 122.466 27.9581C122.466 29.8335 121.359 31.3372 119.55 32.1014C121.654 32.8408 122.952 34.4767 122.952 36.5628V36.5669ZM113.93 25.558V31.1017H116.415C118.278 31.1017 119.575 29.9409 119.575 28.2514C119.575 26.6692 118.278 25.558 116.415 25.558H113.93ZM119.981 36.3562C119.981 34.6667 118.629 33.5059 116.685 33.5059H113.93V39.2355H116.685C118.629 39.2355 119.981 38.0747 119.981 36.3562Z" fill="#383B46"/><path d="M137.453 39.0496L136.993 41.6355H126.408V23.1538H136.642L137.102 25.7398H129.298V30.8621H135.725V33.4481H129.298V39.0455H137.453V39.0496Z" fill="#383B46"/><path d="M149.47 41.6355L143.774 33.9025V41.6355H140.884V23.1538H145.422C149.61 23.1538 152.2 25.6076 152.2 28.9371C152.2 31.7089 150.337 33.7951 147.421 34.4023L153.011 41.6355H149.475H149.47ZM143.774 32.5806H145.207C147.717 32.5806 149.229 31.1306 149.229 29.0693C149.229 27.008 147.717 25.6365 145.207 25.6365H143.774V32.5806Z" fill="#383B46"/><path d="M171.912 22.9473V41.6355H169.021V33.5844H159.028V41.6355H156.138V23.3686L159.028 22.9473V30.891H169.021V23.3686L171.912 22.9473Z" fill="#383B46"/><path d="M186.794 36.3318H179.826L177.502 41.64H174.371L183.308 22.5015L192.219 41.64H189.113L186.789 36.3318H186.794ZM185.686 33.8491L183.312 28.4128L180.908 33.8491H185.686Z" fill="#383B46"/><path d="M193.626 34.5882V23.3686L196.516 22.9473V34.3775C196.516 37.36 198.219 39.2892 200.839 39.2892C203.459 39.2892 205.187 37.36 205.187 34.3775V23.3686L208.077 22.9473V34.5882C208.077 38.9959 205.187 41.9536 200.839 41.9536C196.491 41.9536 193.63 38.9959 193.63 34.5882H193.626Z" fill="#383B46"/><path d="M211.043 39.975L211.554 37.1247C213.067 38.4714 214.956 39.4215 216.849 39.4215C218.742 39.4215 220.035 38.2318 220.035 36.6497C220.035 35.4352 219.333 34.3776 217.39 33.7456L216.202 33.378C212.721 32.2709 211.559 30.2095 211.559 27.9417C211.559 25.0376 213.908 22.8193 217.255 22.8193C218.848 22.8193 220.601 23.3233 222.224 24.2445L221.738 26.9916C220.145 25.934 218.632 25.3557 217.2 25.3557C215.471 25.3557 214.39 26.4132 214.39 27.8632C214.39 29.0777 215.066 30.0567 217.305 30.7672L218.522 31.1349C221.628 32.1387 222.925 34.1959 222.925 36.5216C222.925 39.5578 220.656 41.9868 216.874 41.9868C214.415 41.9868 212.421 40.983 211.043 39.9792V39.975Z" fill="#383B46"/><path d="M53.8362 39.1528H10.5087V41.6314H53.8362V39.1528Z" fill="#F19A3E"/><path d="M53.5742 36.0836L32.1724 32.0601L10.7706 36.0836L10.2932 33.6505L32.1724 29.5361L32.409 29.5816L54.0517 33.6505L53.5742 36.0836Z" fill="#B29847"/><path d="M53.2953 30.4781L32.1724 22.5302L11.0495 30.4781L10.1368 28.1648L32.1724 19.874L54.2038 28.1648L53.2953 30.4781Z" fill="#6C984E"/><path d="M53.0334 24.8146L32.1724 13.0414L11.3115 24.8146L10.0439 22.6706L32.1724 10.1787L54.301 22.6706L53.0334 24.8146Z" fill="#2A9756"/><style xmlns="" type="text/css"/></svg>