<?xml version="1.0" encoding="UTF-8"?><svg xmlns="http://www.w3.org/2000/svg" viewBox="0 0 679.5 588.19"><g style="isolation:isolate;"><g id="Laag_1"><g><path d="M318.86,78.45c-76.32,16.72-143.76,89.56-150.05,175.19-6.28,85.63,0,180.68,87.2,247.46,87.2,66.77,134.34-63.63,168.12-76.99,33.78-13.36,102.91-19.64,143.76-56.56,40.85-36.92,87.2-141.41,56.56-199.54-30.64-58.13-108.41-132.76-305.59-89.56Z" style="fill:#f4e04e;"/><path d="M232.49,385.15c59.96-50.13,23.83-131.21-41.83-158.07-65.66-26.86-168.4,36.82-155.45,113.28,12.94,76.45,116.97,111.94,197.28,44.79Z" style="fill:#e0f2fd; mix-blend-mode:multiply;"/><path d="M463.31,439c-33.91,.87-41.97,44.02-28.67,65.52,13.31,21.5,57.33,26.62,69.62,0,12.28-26.62-1.02-66.54-40.95-65.52Z" style="fill:#95c56b;"/><g><path d="M287.97,500.18c-15.88,0-32.21-8.42-47.37-24.45-42.34-44.79-67.12-136.48-58.92-218,6.25-62.13,36.98-102.85,61.65-126.07,26.74-25.16,52.39-35.79,52.65-35.89l.08-.03c115.47-39.82,247.31-3.32,291.01,40.37,42.59,42.59,44.53,97.21,6.29,177.1-31.47,65.74-112.8,79.06-156.49,86.22-8.62,1.41-16.07,2.63-21.23,3.95-11.89,3.03-24.34,18.05-38.76,35.44-22.05,26.59-49.5,59.68-86.94,61.32-.65,.03-1.31,.04-1.96,.04Zm9.09-401.69c-2.33,.97-100.76,43.23-112.45,159.52-9.2,91.49,22.28,177.76,58.13,215.69,15.17,16.05,31.41,24.17,47.06,23.49,36.14-1.59,63.12-34.12,84.8-60.26,14.75-17.78,27.49-33.14,40.3-36.41,5.28-1.35,12.79-2.58,21.48-4,43.17-7.07,123.51-20.23,154.32-84.59,37.62-78.59,35.86-132.18-5.72-173.75-43.14-43.14-173.55-79.11-287.93-39.69Z" style="fill:#fff;"/><path d="M286.73,485.67c-1.18,0-2.34-.07-3.52-.22-34.86-4.32-62.27-49.14-81.49-133.2-11.06-48.38,3.54-73.86,11.38-87.55,3.53-6.16,4.72-8.59,3.22-9.63-.72-.5-1.3-.68-1.71-.54-1.47,.49-2.78,4.48-3.83,7.68-2.02,6.18-4.54,13.88-11.4,11.72-1.41-.44-2.38-1.68-2.89-3.69-3.92-15.67,21.93-94.47,60.31-133.48,40.16-40.82,110.05-45.65,112.31-45.79,100.08-12.27,194.58,37.34,215.31,59.15,32.09,33.74,34.92,84.59,7.57,136.02-27.61,51.92-84.29,89.87-123.14,96.56-11.21,1.93-20.2,3.29-28.13,4.49-19.27,2.91-30.9,4.67-48.31,10.79-9.18,3.23-22.01,18.09-35.59,33.82-21.85,25.31-46.49,53.85-70.1,53.85Zm-71.81-234.11c.99,0,2.02,.37,3.09,1.11,3.86,2.67,1.39,6.98-2.35,13.5-7.64,13.34-21.87,38.17-11.07,85.43,18.91,82.73,45.48,126.78,78.98,130.94,23.1,2.87,48.56-26.62,71.02-52.64,14.44-16.73,26.92-31.19,36.84-34.67,17.67-6.21,29.41-7.98,48.85-10.92,7.92-1.2,16.89-2.55,28.07-4.48,38.15-6.57,93.85-43.92,121.04-95.05,26.73-50.26,24.07-99.83-7.1-132.62-20.45-21.5-113.8-70.4-212.87-58.25h-.09c-.7,.05-70.62,4.47-110.43,44.93-36.98,37.58-63.26,115.89-59.55,130.7,.22,.89,.56,1.49,.91,1.6,3.8,1.19,5.53-3.12,7.73-9.83,1.51-4.61,2.82-8.59,5.69-9.55,.4-.14,.82-.2,1.24-.2Z" style="fill:#fff;"/><path d="M283.03,468.43c-1.16,0-2.34-.09-3.53-.27-13.06-2.01-24.95-14.95-36.33-39.58-33.79-73.12-28.54-137.32-18.4-153.93,7.8-12.78,6.21-18.29,3.34-28.29-.99-3.45-2.12-7.36-3.05-12.21-3.73-19.34,14.71-53.16,15.5-54.59,43.77-83.95,159.42-80.68,162.78-80.56,64.78-2.62,145.78,32.01,168.32,51.73,10.12,8.85,22,27.64,25.01,53.83,2.33,20.33-.07,52.29-24.75,89.07-45.3,67.51-125.82,74.88-164.51,78.41-33.29,3.05-55.41,31.88-71.56,52.93-4.58,5.97-8.54,11.13-12.21,15.03-1.22,1.29-2.51,2.71-3.86,4.2-9.41,10.35-22.04,24.24-36.74,24.24ZM400.07,101.88c-19.03,0-117.66,3.74-156.93,79.06-.2,.37-18.73,34.35-15.2,52.65,.91,4.73,2.02,8.57,2.99,11.96,2.9,10.09,4.82,16.75-3.65,30.64-10.48,17.17-13.23,82.37,18.56,151.17,10.78,23.33,22.26,36.09,34.1,37.91,14.66,2.26,27.94-12.37,37.64-23.05,1.36-1.5,2.66-2.93,3.89-4.24,3.57-3.79,7.49-8.89,12.02-14.8,16.48-21.49,39.05-50.91,73.63-54.07,38.24-3.5,117.81-10.77,162.33-77.12,44.49-66.3,19.38-122.31,.25-139.05-22.22-19.45-102.24-53.58-166.32-51h-.12c-.11,0-1.23-.04-3.2-.04Z" style="fill:#fff;"/><path d="M274.9,435.43c-2.59,0-5.1-.53-7.54-1.6-23.84-10.44-33.63-69.76-35.65-103.16-1.47-24.28,2.37-39.59,6.09-54.39,2.98-11.84,5.79-23.03,5.24-37.69-1.24-33.48,3.63-45.63,22.27-72.92,18.65-27.31,51.48-40.34,52.04-40.56,96.68-38.67,179.87-.6,219.85,17.7l.75,.34c42.68,19.53,57.99,67.81,38.11,120.14-21.08,55.49-121.97,85.88-184.64,92.77-39.9,4.39-52.47,20.03-68.38,39.83-7.88,9.8-16.8,20.91-30.24,31.88-6.25,5.1-12.24,7.66-17.9,7.66ZM403.46,111.34c-26.45,0-55.09,4.52-85.03,16.49h-.01c-.32,.13-32.49,12.85-50.68,39.49-18.21,26.66-22.97,38.52-21.76,71.15,.56,15.08-2.3,26.46-5.33,38.51-3.67,14.59-7.46,29.67-6.01,53.5,1.85,30.49,11.31,90.75,33.9,100.64,6.7,2.94,14.24,1.04,22.4-5.64,13.2-10.78,22.02-21.76,29.81-31.45,16.34-20.33,29.24-36.4,70.35-40.91,59.59-6.55,161.75-37.01,182.22-90.89,19.3-50.79,4.59-97.58-36.59-116.43l-.75-.34c-27.19-12.45-74.57-34.13-132.51-34.13Z" style="fill:#fff;"/><path d="M271.72,406.93c-4.36,0-8.27-1.97-11.66-5.87-17.96-20.7-16.7-90.8-8.46-117.84,3.3-10.83,4.61-22.59,5.99-35.04,2.67-23.96,5.69-51.12,24.41-77.85,27.59-39.42,87.09-48.27,89.65-48.63,42.87-10.19,137.05,4.77,179.46,46.35,19.37,18.99,26.44,41.25,21.02,66.14-16.23,74.49-92.22,86.81-153.27,96.72-15.02,2.44-29.2,4.74-41.24,7.78-34.36,8.68-53.36,28.18-68.62,43.84-11.59,11.89-21.59,22.16-34.9,24.23-.8,.12-1.59,.19-2.37,.19ZM403.21,121.51c-11.83,0-22.42,1.02-30.95,3.06l-.15,.03c-.6,.08-60.39,8.4-87.7,47.41-18.28,26.12-21.26,52.88-23.89,76.49-1.4,12.59-2.73,24.48-6.1,35.57-7.87,25.84-9.19,95.41,7.87,115.06,3.33,3.84,7.05,5.38,11.36,4.71,12.34-1.92,21.57-11.39,33.25-23.37,15.52-15.93,34.84-35.75,70-44.64,12.16-3.07,26.41-5.38,41.49-7.83,60.17-9.76,135.06-21.91,150.87-94.45,5.2-23.84-1.6-45.17-20.21-63.41-33.32-32.67-99.15-48.63-145.84-48.63Z" style="fill:#fff;"/><path d="M283.64,365.48c-1.44,0-2.82-.15-4.15-.49-4.23-1.05-7.68-3.86-10.24-8.34-13.27-23.22-2.52-105.4,15.23-157.95,18.13-53.71,87.27-71.46,102.47-67.66,14.8,3.7,28.63,3.94,30.18,3.96,42.83-8.77,71.43,7.4,101.72,24.52,2.16,1.22,4.34,2.45,6.54,3.68,20.9,11.7,35.08,30.43,37.92,50.11,2.86,19.84-5.52,40.46-24.25,59.63-31.28,32.01-97.57,43.09-145.97,51.18-21.1,3.53-39.32,6.57-47.91,10.46-7.89,3.57-16.26,8.87-24.36,13.99-13.7,8.67-26.73,16.91-37.17,16.91Zm98.22-232.01c-20.27,0-78.72,19.13-94.6,66.17-17.55,51.99-28.36,132.97-15.46,155.55,2.18,3.81,4.92,6.08,8.4,6.95,9.81,2.44,24.01-6.54,39.04-16.05,8.18-5.18,16.64-10.53,24.72-14.18,8.94-4.04,26.46-6.97,48.64-10.68,48-8.03,113.75-19.01,144.35-50.34,18.06-18.49,26.17-38.25,23.44-57.15-2.71-18.78-16.33-36.71-36.44-47.96-2.2-1.23-4.38-2.47-6.55-3.69-31.13-17.59-58.01-32.78-99.84-24.17l-.3,.03c-.15,0-15.04-.05-31.04-4.05-1.13-.28-2.61-.43-4.37-.43Z" style="fill:#fff;"/><path d="M287.72,353.43c-.92,0-1.8-.2-2.65-.64-5.18-2.67-8.29-13.26-6.67-56.28,2.64-70,28.52-111.7,49.76-134.35,19.9-21.22,52.61-20.55,55.06-20.48,9.23-.82,19.57,1.43,30.51,3.83,10.11,2.21,20.59,4.49,30.18,4.18,13.2-.44,67.46,3.84,92.47,32.81,11.25,13.02,15.2,29.27,11.75,48.29-11.63,64.04-110.61,74.85-158.18,80.05-6.17,.68-11.51,1.26-15.83,1.85-35.53,4.9-51.31,16.87-66.56,28.45-1.16,.88-2.31,1.75-3.46,2.62-1.07,.8-2.11,1.61-3.13,2.39-4.98,3.85-9.42,7.27-13.24,7.27Zm94.51-208.82c-5.62,0-34.48,.94-51.94,19.56-20.9,22.29-46.36,63.36-48.96,132.45-.81,21.45-1.16,50.35,5.08,53.56,2.72,1.4,7.6-2.37,12.76-6.35,1.03-.79,2.08-1.61,3.16-2.42,1.15-.86,2.29-1.73,3.45-2.61,14.83-11.26,31.65-24.02,67.94-29.03,4.36-.6,9.71-1.19,15.91-1.86,46.86-5.12,144.37-15.77,155.6-77.65,3.29-18.11-.44-33.53-11.08-45.85-24.25-28.09-77.32-32.21-90.15-31.79-9.97,.34-20.61-2-30.91-4.25-10.75-2.35-20.9-4.57-29.71-3.76h-.19s-.37,0-.96,0Z" style="fill:#fff;"/><path d="M310.76,321.82c-4.15,0-8.26-1.56-12.55-5.49-19.43-17.84,6.46-105.5,30.52-136.36,24.66-31.63,73.32-25.14,74.79-24.93,52.35,5.92,109.69,14.56,127.56,42.34,6.42,9.97,7.42,21.96,2.98,35.61-15.1,46.42-93.68,55.54-140.63,60.99-10.14,1.18-18.9,2.19-25.25,3.37-15.05,2.79-26.49,9.77-35.68,15.38-7.97,4.87-14.91,9.1-21.74,9.1Zm80.62-164.54c-15.79,0-43.8,3.29-60.33,24.5-25.15,32.26-47.82,116.81-30.85,132.39,9.7,8.91,18.08,3.79,30.76-3.95,9.4-5.73,21.09-12.87,36.68-15.76,6.45-1.19,15.26-2.22,25.45-3.4,46.25-5.37,123.66-14.35,138.18-58.98,4.22-12.96,3.35-23.79-2.66-33.11-17.18-26.7-73.76-35.17-125.44-41.01h-.05c-.15-.03-4.75-.67-11.74-.67Z" style="fill:#fff;"/><path d="M331.96,291.43c-4.41,0-8.63-.8-12.71-2.76-4.92-2.36-7.93-7.52-8.96-15.35-3.43-26.16,16.45-76.33,37.32-94.18,26.15-22.37,99.51-5.64,103.3-4.75,20.68,3.38,57.14,12.01,69.32,31.82,4.39,7.15,5.23,15.14,2.5,23.75-10.44,32.95-68.09,41.8-114.61,43.42-17.5,.61-32.59,5.93-45.9,10.63-11.02,3.89-21.03,7.42-30.26,7.42Zm61.47-120.86c-17.29,0-34.26,2.55-43.91,10.81-19.9,17.02-39.58,66.66-36.32,91.57,.89,6.78,3.35,11.18,7.32,13.08,11.51,5.52,24.4,.97,40.72-4.78,13.51-4.76,28.82-10.16,46.77-10.79,37.31-1.3,101.46-8.41,111.91-41.37,2.46-7.77,1.72-14.94-2.2-21.33-11.57-18.83-47.16-27.17-67.34-30.47l-.1-.02c-.46-.11-29.08-6.69-56.86-6.69Z" style="fill:#fff;"/><path d="M345.13,276.73c-5.79,0-10.86-1.83-15.01-6.55-5.12-5.84-6.81-15.09-4.88-26.76,3.66-22.13,19.51-48.17,34.6-56.86,22.07-12.7,77.15-.88,80.36-.18,32.9,4.06,57,13.66,66.13,26.36,3.67,5.1,4.94,10.58,3.77,16.28-3.3,16.19-37.08,19.75-69.75,23.19-9.33,.98-18.14,1.91-26.06,3.11-13.16,1.99-26.08,7.34-37.48,12.05-11.8,4.88-22.63,9.36-31.68,9.36Zm45.69-93.05c-11.5,0-22.44,1.36-29.51,5.43-14.44,8.31-29.63,33.4-33.17,54.79-1.24,7.51-1.53,17.84,4.19,24.34,9.24,10.53,24.3,4.3,43.36-3.58,11.55-4.78,24.65-10.19,38.16-12.24,7.99-1.21,16.83-2.14,26.19-3.13,30.14-3.17,64.31-6.77,67.18-20.85,.99-4.86-.11-9.57-3.28-13.97-8.66-12.05-32.05-21.22-64.17-25.17l-.14-.02c-.38-.08-25.71-5.59-48.82-5.59Z" style="fill:#fff;"/><path d="M352.91,255.9c-3.82,0-6.65-1.11-8.28-3.97-5.64-9.87,4.51-37.53,21.1-49.29,18.49-13.1,77.01-3.5,94.5-.25,29.1,5.41,34.85,17.31,35.09,17.81l.11,.34c.49,2.61-.08,5-1.7,7.12-7.29,9.49-34.9,11.55-61.59,13.54-10.75,.8-20.91,1.56-28.56,2.78-10.93,1.74-20.83,4.67-29.56,7.25-8.6,2.54-15.81,4.67-21.11,4.67Zm47.08-57c-14.44,0-26.36,1.74-32.56,6.14-15.25,10.8-25.24,36.69-20.25,45.43,2.75,4.81,12.5,1.93,26-2.06,8.82-2.61,18.81-5.56,29.93-7.33,7.78-1.24,17.99-2,28.81-2.81,23.61-1.76,52.99-3.95,59.48-12.4,1.06-1.38,1.45-2.88,1.18-4.57-.75-1.3-7.21-11.24-32.88-16.01-19.69-3.66-41.67-6.38-59.7-6.38Z" style="fill:#fff;"/><path d="M368.87,239.76c-6.18,0-10.77-2.91-11.6-7.66-1.46-8.34,9.02-19.11,35.71-24.37,43.13-8.5,81.08,10.78,82.95,11.75,3.79,1.58,5.39,3.45,4.76,5.57-1.89,6.4-26.99,8.34-44.34,5.12-16.24-3.02-31.92,1.25-45.75,5.01-6.47,1.76-12.58,3.42-18.46,4.32-1.13,.17-2.22,.26-3.27,.26Zm46.73-31.25c-7.07,0-14.48,.62-22.06,2.11-26.28,5.18-34.36,15.38-33.38,20.98,.68,3.88,5.42,5.93,11.53,5,5.71-.87,11.74-2.51,18.13-4.25,14.14-3.84,30.17-8.2,47.06-5.06,17.07,3.17,35.94,.77,40.34-2.39,.59-.42,.65-.68,.65-.68,0,0-.21-.84-3.13-2.04l-.13-.06c-.31-.17-25.96-13.6-59.01-13.6Z" style="fill:#fff;"/></g><g><g><path d="M159.28,182.26h16.87l9.77,65.38h1.75l14.19-65.38h18.61l14.19,65.38h1.75l9.77-65.38h16.87l-15.12,79.11h-24.31l-12.45-60.15-12.45,60.15h-24.32l-15.12-79.11Z" style="fill:#403f3f;"/><path d="M328.61,252.94c-4.93,6.55-13.4,9.83-25.42,9.83s-20.5-3.28-25.42-9.83c-4.93-6.55-7.39-16.81-7.39-30.77s2.46-24.33,7.39-31.12c4.92-6.79,13.4-10.18,25.42-10.18s20.49,3.39,25.42,10.18c4.92,6.79,7.39,17.16,7.39,31.12s-2.46,24.22-7.39,30.77Zm-38.28-10.24c2.29,4.07,6.57,6.11,12.86,6.11s10.57-2.04,12.86-6.11c2.29-4.07,3.43-10.9,3.43-20.48s-1.16-16.54-3.49-20.88c-2.33-4.34-6.59-6.52-12.8-6.52s-10.47,2.17-12.8,6.52c-2.33,4.34-3.49,11.3-3.49,20.88s1.14,16.4,3.43,20.48Z" style="fill:#403f3f;"/><path d="M404.46,252.94c-4.93,6.55-13.4,9.83-25.42,9.83s-20.5-3.28-25.42-9.83c-4.93-6.55-7.39-16.81-7.39-30.77s2.46-24.33,7.39-31.12c4.93-6.79,13.4-10.18,25.42-10.18s20.5,3.39,25.42,10.18c4.93,6.79,7.39,17.16,7.39,31.12s-2.46,24.22-7.39,30.77Zm-38.27-10.24c2.29,4.07,6.57,6.11,12.85,6.11s10.57-2.04,12.86-6.11c2.29-4.07,3.43-10.9,3.43-20.48s-1.16-16.54-3.49-20.88c-2.33-4.34-6.59-6.52-12.8-6.52s-10.47,2.17-12.8,6.52c-2.33,4.34-3.49,11.3-3.49,20.88s1.14,16.4,3.43,20.48Z" style="fill:#403f3f;"/><path d="M452.22,261.37h-26.64v-79.11h26.64c6.82,0,12.45,.72,16.87,2.15,4.42,1.44,7.85,3.8,10.3,7.1,2.44,3.3,4.13,7.17,5.06,11.63,.93,4.46,1.39,10.26,1.39,17.39s-.43,13.05-1.28,17.74c-.86,4.69-2.46,8.88-4.83,12.56-2.37,3.68-5.8,6.36-10.3,8.03-4.5,1.67-10.24,2.5-17.22,2.5Zm16.87-31.41c.15-2.48,.23-5.91,.23-10.3s-.16-7.89-.47-10.53-1.05-5.04-2.21-7.21c-1.16-2.17-2.89-3.66-5.18-4.48-2.29-.81-5.37-1.22-9.25-1.22h-10.59v51.19h10.59c5.82,0,10.04-1.47,12.68-4.42,2.25-2.4,3.65-6.75,4.19-13.03Z" style="fill:#403f3f;"/></g><g><path d="M191.15,299.43c-8.45,0-12.68,2.79-12.68,8.38,0,2.48,1.05,4.38,3.14,5.7s7,3.22,14.72,5.7c7.72,2.48,13.13,5.29,16.23,8.43,3.1,3.14,4.65,7.97,4.65,14.48,0,8.3-2.52,14.58-7.56,18.85-5.04,4.27-11.63,6.4-19.78,6.4-6.05,0-13.46-.93-22.22-2.79l-4.19-.81,1.63-12.45c10.39,1.4,18.34,2.09,23.85,2.09,8.22,0,12.33-3.41,12.33-10.24,0-2.48-.95-4.42-2.85-5.82-1.9-1.4-5.68-2.91-11.34-4.54-9-2.56-15.34-5.6-19.02-9.13-3.68-3.53-5.53-8.43-5.53-14.72,0-7.91,2.4-13.8,7.21-17.68,4.81-3.88,11.4-5.82,19.78-5.82,5.74,0,13.03,.78,21.87,2.33l4.19,.81-1.28,12.68c-10.94-1.24-18.65-1.86-23.15-1.86Z" style="fill:#403f3f;"/><path d="M223.03,301.06v-14.19h58.17v14.19h-20.94v64.92h-16.06v-64.92h-21.17Z" style="fill:#403f3f;"/><path d="M345.36,357.54c-4.93,6.56-13.4,9.83-25.42,9.83s-20.5-3.28-25.42-9.83c-4.93-6.55-7.39-16.81-7.39-30.77s2.46-24.33,7.39-31.12c4.92-6.79,13.4-10.18,25.42-10.18s20.5,3.39,25.42,10.18c4.93,6.79,7.39,17.16,7.39,31.12s-2.46,24.22-7.39,30.77Zm-38.28-10.24c2.29,4.07,6.57,6.11,12.86,6.11s10.57-2.04,12.86-6.11c2.29-4.07,3.43-10.9,3.43-20.48s-1.16-16.54-3.49-20.88-6.59-6.52-12.8-6.52-10.47,2.17-12.8,6.52c-2.33,4.34-3.49,11.3-3.49,20.88s1.14,16.4,3.43,20.48Z" style="fill:#403f3f;"/><path d="M416.62,364.69c-8.22,1.78-15.63,2.68-22.22,2.68s-11.87-.82-15.82-2.44c-3.96-1.63-7.06-4.23-9.31-7.8-2.25-3.57-3.8-7.76-4.66-12.56-.85-4.81-1.28-10.86-1.28-18.15,0-15.28,2.15-25.93,6.46-31.94s12.23-9.02,23.79-9.02c6.67,0,14.39,1.05,23.15,3.14l-.46,12.8c-7.68-1.16-14.06-1.75-19.14-1.75s-8.71,.68-10.88,2.04c-2.17,1.36-3.78,3.94-4.83,7.74-1.05,3.8-1.57,10.28-1.57,19.43s1.07,15.49,3.2,19.02c2.13,3.53,6.4,5.29,12.8,5.29s13.2-.54,20.42-1.63l.35,13.15Z" style="fill:#403f3f;"/><path d="M445.7,365.97h-16.06v-79.11h16.06v34.79l10.7-1.16,13.03-33.62h18.27l-17.22,39.67,17.68,39.44h-18.5l-13.26-31.53-10.7,1.16v30.36Z" style="fill:#403f3f;"/></g></g><rect x="516.84" y="180.26" width="15.67" height="190.31" style="fill:#403f3f;"/><rect x="115.02" y="180.26" width="15.67" height="190.31" style="fill:#403f3f;"/></g><rect width="679.5" height="588.19" style="fill:none;"/></g></g></svg>